<?xml version="1.0" encoding="UTF-8"?>
<svg xmlns="http://www.w3.org/2000/svg" xml:space="preserve" width="100%" height="100%" version="1.1" style="shape-rendering:geometricPrecision; text-rendering:geometricPrecision; image-rendering:optimizeQuality; fill-rule:evenodd; clip-rule:evenodd"
viewBox="0 0 1512 1512"
 xmlns:xlink="http://www.w3.org/1999/xlink">
 <defs>
  <style type="text/css">
   <![CDATA[
    .fil0 {fill:#4682b4;fill-rule:nonzero}
   ]]>
  </style>
 </defs>
 <g id="Layer_x0020_1">
  <metadata id="CorelCorpID_0Corel-Layer"/>
  <path class="fil0" d="M596 1052c-37,37 -98,37 -136,0 -37,-38 -37,-99 0,-136l724 -724 -50 0 -193 0c-54,0 -97,-43 -97,-96 0,-53 43,-96 97,-96l193 0 282 0c23,0 44,8 60,21l1 0c0,1 0,1 1,1l0 1c1,0 1,0 1,1l1 0c0,1 1,1 1,2l1 0 0 0 1 1 0 0 0 1c1,0 1,0 2,1l0 0 0 0c1,1 1,1 1,2l1 0c0,0 0,1 1,1l0 0 0 0 0 1 0 0 1 1 1 0c0,1 0,1 1,2l0 0 0 0 1 1 1 1 0 1 1 0 0 0 0 1 0 0 0 0 0 0 0 0 0 0 0 0 0 0 0 0 0 0 0 0 0 0 0 0 0 0 0 0 1 1 0 0 0 0 0 0 0 0 0 0 0 0 0 0 0 0 0 0 0 0 0 0 0 0 0 1 0 0 0 0 0 0 0 0 0 0 0 0 0 0 0 0 0 0 0 0 1 1 0 0 0 0 0 0 0 0 0 0 0 0 0 0 0 0 0 0 0 0 0 0 0 0 0 0 1 1 0 0 0 0 0 0 0 0 0 0 0 0 0 0 0 0 0 0 0 0 0 0 0 1 0 0 0 0 0 0 0 0 0 0 0 0 0 0 0 0 0 0 0 0 1 0 0 0 0 1 0 0 0 0 0 0 0 0 0 0 0 0 0 0 0 0 0 0 0 0 0 1 0 0 0 0 0 0 0 0 0 0 1 0 0 0 0 0 0 0 0 0 0 1 1 1c0,0 0,1 0,1l1 1c0,0 0,1 0,1l1 1c0,0 0,1 1,1l0 1c0,0 0,1 1,1l0 1c0,0 0,1 1,2l0 0c0,0 0,1 0,2l1 0c0,1 0,1 0,2l0 0c4,10 6,21 6,33l0 282 0 194c0,53 -43,96 -96,96 -53,0 -96,-43 -96,-96l0 -194 0 -50 -724 724zm-569 430c-17,-17 -27,-40 -27,-66l0 -1320c0,-53 43,-96 96,-96l503 0c53,0 96,43 96,96 0,53 -43,96 -96,96l-407 0 0 1128 1128 0 0 -407c0,-53 43,-96 96,-96 53,0 96,43 96,96l0 503c0,53 -43,96 -96,96l-1320 0c-21,0 -40,-6 -56,-18 0,0 -1,0 -1,-1l0 0c-1,0 -2,-1 -2,-1l0 0c-1,-1 -1,-1 -2,-2l0 0c-1,0 -1,-1 -2,-1l0 0c0,-1 -1,-1 -1,-2l-1 0c0,0 -1,-1 -1,-1l0 0c-1,-1 -1,-1 -2,-2l0 0c0,-1 -1,-1 -1,-2z"/>
 </g>
</svg>
