<svg id="logo__container" xmlns="http://www.w3.org/2000/svg"  x="0" y="0" viewBox="0 0 2561 572" >
	<path class="logo__text" d="M368.332,274.758h102.443c86.352,0,146.017-60.054,146.017-137.379C616.792,59.272,557.127,0,470.775,0
		H368.332V274.758z M1494.878,282.648c-0.25-0.633-0.504-1.277-0.758-1.924l-82.455-213.212h49.477l56.93,154.852l56.935-154.852
		h49.472l-82.455,213.212c-16.489,42.403-34.946,58.11-68.323,58.11c-20.021,0-34.552-4.713-49.079-12.564l16.1-35.339
		c8.633,4.713,18.058,7.851,27.877,7.851C1479.795,298.782,1487.92,294.64,1494.878,282.648z M1951.934,524.86h-16.729v16.158
		h16.729V524.86z M951.23,278.684c43.176,0,76.932-21.586,76.932-65.155c0-38.075-34.149-51.814-64.373-61.234
		c-1.176-0.389-2.75-0.782-3.926-1.176c-22.766-7.458-42.783-13.739-42.783-27.867c0-12.952,10.596-21.59,29.043-21.59
		c17.271,0,38.468,7.458,58.485,19.628l18.841-33.756c-21.979-14.526-50.24-23.553-76.145-23.553
		c-41.213,0-73.793,23.947-73.793,63.192c0,40.431,34.149,52.99,64.762,62.017c1.181,0.394,2.356,0.787,3.537,1.181
		c22.766,6.671,42.783,12.165,42.783,27.474c0,14.522-11.777,23.16-32.187,23.16c-21.197,0-45.532-8.638-67.905-25.511
		l-21.192,32.182C889.214,268.088,921.789,278.684,951.23,278.684z M1158.876,279.471c40.426,0,64.373-16.096,84.783-38.862
		l-28.655-28.261c-14.915,15.309-31.399,25.909-53.772,25.909c-36.505,0-62.017-29.835-62.017-66.729s25.122-66.724,59.66-66.724
		c23.947,0,39.251,10.596,53.777,25.905l29.437-31.793c-19.234-21.197-43.57-35.723-82.82-35.723
		c-62.017,0-107.549,49.458-107.549,108.336C1051.72,231.189,1097.252,279.471,1158.876,279.471z M1273.892,274.758h47.495v-74.969
		c0-54.953,29.043-82.033,70.65-82.033h2.75V67.511c-36.505-1.569-60.448,19.628-73.4,50.634V67.511h-47.495V274.758z
		 M1954.698,278.29c17.66,0,31.006-3.926,42.778-10.596v-38.862c-9.416,4.713-18.836,7.069-29.437,7.069
		c-16.091,0-25.511-7.458-25.511-25.905V108.336h55.735V67.511h-55.735V10.596h-47.495v56.915h-26.298v40.825h26.298v109.118
		C1895.033,262.982,1919.762,278.29,1954.698,278.29z M2264.091,274.758h47.495v-78.895c0-54.953,29.043-82.033,70.65-82.033h2.75
		V63.586c-36.506-1.569-60.448,19.628-73.4,50.634V67.511h-47.495V274.758z M2483.906,278.684c43.176,0,76.932-21.586,76.932-65.155
		c0-38.075-34.149-51.814-64.368-61.234c-1.181-0.389-2.75-0.782-3.926-1.176c-22.766-7.458-42.787-13.739-42.787-27.867
		c0-12.952,10.601-21.59,29.048-21.59c17.271,0,38.468,7.458,58.485,19.628l18.841-33.756
		c-21.979-14.526-50.245-23.553-76.15-23.553c-41.213,0-73.789,23.947-73.789,63.192c0,40.431,34.145,52.99,64.762,62.017
		c1.181,0.394,2.356,0.787,3.532,1.181c22.766,6.671,42.787,12.165,42.787,27.474c0,14.522-11.776,23.16-32.186,23.16
		c-21.197,0-45.532-8.638-67.905-25.511l-21.197,32.182C2421.889,268.088,2454.469,278.684,2483.906,278.684z M431.961,543.298
		c24.139,0,39.346-8.552,53.225-22.617l-9.886-10.457c-12.736,12.165-24.715,19.201-42.96,19.201
		c-29.274,0-51.512-24.143-51.512-54.934c0-30.982,22.051-54.933,51.512-54.933c18.058,0,30.603,7.602,41.818,18.246l9.886-10.644
		c-13.307-12.544-27.373-21.48-51.512-21.48c-39.159,0-67.291,31.174-67.291,68.812
		C365.241,513.074,393.565,543.298,431.961,543.298z M502.486,541.018h14.637v-39.155c0-29.657,17.487-45.052,38.967-45.052h1.137
		v-15.779c-18.63-0.758-32.882,11.028-40.105,27.373v-25.66h-14.637V541.018z M588.219,572c14.824,0,24.331-7.414,32.69-27.752
		l41.252-101.502h-15.587l-31.558,81.927l-35.733-81.927h-16.158l44.669,97.894c-5.893,13.874-11.402,18.438-20.146,18.438
		c-6.272,0-10.644-1.142-15.4-3.614l-4.938,11.594C573.962,570.292,580.042,572,588.219,572z M678.891,571.429h14.637v-49.227
		c7.602,11.023,19.388,20.909,37.638,20.909c23.76,0,46.948-19.009,46.948-51.133c0-32.695-23.38-51.325-46.948-51.325
		c-18.058,0-29.653,10.073-37.638,21.859v-19.767h-14.637V571.429z M728.502,529.995c-18.246,0-35.546-15.208-35.546-38.017
		c0-22.809,17.3-38.209,35.546-38.209c18.63,0,34.596,14.829,34.596,38.017C763.098,515.924,747.511,529.995,728.502,529.995z
		 M831.53,542.726c7.035,0,12.549-1.516,17.679-4.18v-12.544c-5.13,2.471-9.315,3.422-14.258,3.422
		c-9.881,0-16.537-4.372-16.537-16.35v-57.405h31.174v-12.924h-31.174v-29.653h-14.637v29.653h-13.687v12.924h13.687v59.31
		C803.778,534.933,815.756,542.726,831.53,542.726z M910.991,543.298c29.653,0,51.512-23.568,51.512-51.32
		c0-28.131-21.672-51.325-51.133-51.325c-29.653,0-51.32,23.572-51.32,51.325C860.051,520.109,881.526,543.298,910.991,543.298z
		 M911.37,530.182c-20.717,0-36.304-17.108-36.304-38.204c0-21.101,14.637-38.396,35.925-38.396
		c20.717,0,36.496,17.295,36.496,38.396C947.487,513.074,932.658,530.182,911.37,530.182z M1041.959,541.018h46.195
		c41.818,0,70.708-29.082,70.708-66.528c0-37.825-28.89-66.532-70.708-66.532h-46.195V541.018z M1056.98,527.144V421.836h31.174
		c33.641,0,55.121,23.188,55.121,52.654c0,29.84-21.48,52.654-55.121,52.654H1056.98z M1190.419,497.871h77.935
		c0.192-2.284,0.192-3.806,0.192-5.135c0-28.89-16.729-52.083-45.811-52.083c-27.181,0-47.14,22.809-47.14,51.325
		c0,30.603,22.046,51.32,49.04,51.32c18.63,0,30.603-7.414,40.489-18.438l-9.128-8.173c-7.981,8.365-17.487,13.874-30.982,13.874
		C1207.719,530.561,1192.511,518.588,1190.419,497.871z M1190.419,486.085c2.092-19.009,15.021-33.074,31.937-33.074
		c19.388,0,29.653,15.208,31.361,33.074H1190.419z M1320.25,542.918c19.58,0,34.975-10.836,34.975-29.461
		c0-18.058-16.345-23.951-31.553-28.515c-13.115-3.993-25.281-7.602-25.281-16.916c0-8.552,7.414-14.637,19.009-14.637
		c9.507,0,19.959,3.614,29.082,9.502l6.656-11.023c-10.073-6.651-23.38-10.836-35.354-10.836c-19.393,0-33.458,11.215-33.458,28.136
		c0,18.438,17.108,23.76,32.503,28.131c12.928,3.609,24.523,7.414,24.523,17.295c0,9.886-8.552,15.966-20.338,15.966
		c-11.594,0-23.38-4.559-34.025-12.544l-7.414,10.457C1290.597,537.404,1306.184,542.918,1320.25,542.918z M1420.24,543.298
		c18.438,0,30.224-7.981,40.105-19.009l-9.694-8.931c-7.794,8.36-17.108,14.824-29.653,14.824c-20.53,0-36.117-16.916-36.117-38.204
		c0-21.48,15.208-38.396,35.167-38.396c13.307,0,22.43,6.272,30.224,14.445l9.315-9.886c-9.123-9.694-20.722-17.487-39.346-17.487
		c-28.703,0-50.375,23.572-50.375,51.325C1369.866,519.917,1391.538,543.298,1420.24,543.298z M1478.029,541.018h14.637v-39.155
		c0-29.657,17.487-45.052,38.967-45.052h1.142v-15.779c-18.629-0.758-32.887,11.028-40.109,27.373v-25.66h-14.637V541.018z
		 M1548.933,421.265h16.729v-16.158h-16.729V421.265z M1549.884,541.018h14.637v-98.273h-14.637V541.018z M1644.36,543.11
		c23.76,0,46.948-19.009,46.948-51.133c0-32.695-23.38-51.325-46.948-51.325c-18.058,0-29.653,10.073-37.638,21.859v-60.255h-14.637
		v138.761h14.637v-18.817C1614.329,533.225,1626.11,543.11,1644.36,543.11z M1641.697,529.995
		c-18.246,0-35.546-15.208-35.546-38.017c0-22.809,17.3-38.209,35.546-38.209c18.629,0,34.595,14.829,34.595,38.017
		C1676.292,515.924,1660.706,529.995,1641.697,529.995z M1720.587,497.871h77.935c0.187-2.284,0.187-3.806,0.187-5.135
		c0-28.89-16.724-52.083-45.806-52.083c-27.186,0-47.14,22.809-47.14,51.325c0,30.603,22.046,51.32,49.04,51.32
		c18.625,0,30.603-7.414,40.489-18.438l-9.128-8.173c-7.981,8.365-17.487,13.874-30.982,13.874
		C1737.887,530.561,1722.679,518.588,1720.587,497.871z M1720.587,486.085c2.092-19.009,15.016-33.074,31.932-33.074
		c19.392,0,29.653,15.208,31.366,33.074H1720.587z M1859.161,543.11c18.058,0,29.653-10.078,37.638-21.859v19.767h14.637V402.257
		h-14.637v59.305c-7.606-11.023-19.388-20.909-37.638-20.909c-23.568,0-46.948,19.009-46.948,51.133
		C1812.213,524.481,1835.593,543.11,1859.161,543.11z M1861.824,529.995c-18.63,0-34.596-14.829-34.596-38.017
		c0-24.143,15.587-38.209,34.596-38.209c18.246,0,35.546,15.208,35.546,37.825C1897.37,514.595,1880.07,529.995,1861.824,529.995z
		 M1641.481,337.557h47.49v-94.985c14.522,19.234,36.112,36.506,70.261,36.506c49.453,0,96.555-38.862,96.555-107.549
		c0-69.474-47.49-108.336-96.555-108.336c-33.362,0-54.953,17.271-70.261,38.862V67.511h-47.49V337.557z M1748.243,237.864
		c-32.187,0-60.448-26.303-60.448-66.336c0-40.426,28.261-67.118,60.448-67.118s59.267,26.298,59.267,66.331
		C1807.51,212.348,1780.818,237.864,1748.243,237.864z M2125.449,279.471c63.975,0,111.081-49.064,111.081-107.943
		c0-60.054-46.713-108.336-110.299-108.336s-110.688,49.069-110.688,108.336C2015.544,231.189,2062.252,279.471,2125.449,279.471z
		 M2126.231,238.258c-36.894,0-63.192-30.617-63.192-66.729c0-36.894,24.335-66.724,62.41-66.724
		c37.288,0,63.586,30.219,63.586,66.724S2164.7,238.258,2126.231,238.258z M751.431,279.471c38.075,0,65.16-15.309,84.783-38.862
		l-27.867-24.724c-16.484,16.091-32.974,24.724-56.128,24.724c-30.617,0-54.559-18.841-59.665-52.596h152.294
		c0.393-2.356,0.787-10.203,0.787-13.341c0-59.665-33.362-111.479-99.305-111.479c-59.272,0-101.267,48.676-101.267,107.943
		C645.063,235.901,691.377,279.471,751.431,279.471z M692.164,156.613c4.314-32.186,24.724-54.559,53.772-54.559
		c31.399,0,49.453,23.942,52.596,54.559H692.164z M416.609,230.8V43.963h54.166c57.698,0,95.384,39.644,95.384,93.416
		c0,54.559-37.686,93.421-95.384,93.421H416.609z"/>
	<path class="logo__icon"  d="M188.832,0H0.162v49.333h188.67V0z M0.162,225.43h188.67v49.328H0.162V225.43z M0.162,150.288h244.242
		v49.328H0.162V150.288z M0.162,75.142h244.242v49.333H0.162V75.142z"/>
</svg>
