<?xml version="1.0" encoding="UTF-8"?>
<svg xmlns="http://www.w3.org/2000/svg" xml:space="preserve" width="100%" height="100%" version="1.1" style="shape-rendering:geometricPrecision; text-rendering:geometricPrecision; image-rendering:optimizeQuality; fill-rule:evenodd; clip-rule:evenodd"
viewBox="0 0 236780 155106"
 xmlns:xlink="http://www.w3.org/1999/xlink">
 <defs>
  <style type="text/css">
   <![CDATA[
    .fil1 {fill:#f2f2f2}
    .fil0 {fill:#f2f2f2;fill-opacity:0.188235}
   ]]>
  </style>
 </defs>
 <g id="Layer_x0020_1">
  <metadata id="CorelCorpID_0Corel-Layer"/>
  <path class="fil0" d="M159227 0c42831,0 77553,34722 77553,77554 0,42830 -34722,77552 -77553,77552 -14986,0 -28976,-4255 -40837,-11617 -11860,7362 -25850,11617 -40836,11617 -42832,0 -77554,-34722 -77554,-77552 0,-42832 34722,-77554 77554,-77554 14986,0 28976,4255 40836,11617 11861,-7362 25851,-11617 40837,-11617z"/>
  <path class="fil1" d="M155106 77554c0,-27847 -14677,-52267 -36716,-65944 -22040,13677 -36715,38097 -36715,65944 0,27845 14675,52265 36715,65942 22039,-13677 36716,-38097 36716,-65942z"/>
 </g>
</svg>
